<?xml version="1.0" encoding="UTF-8" standalone="no"?>
<!-- Created with Inkscape (http://www.inkscape.org/) -->

<svg
   width="36.427mm"
   height="31.75mm"
   version="1.1"
   viewBox="0 0 36.427 31.75"
   xml:space="preserve"
   id="svg14"
   sodipodi:docname="vlab-laserfarm-v2.svg"
   inkscape:version="1.4.1 (93de688d07, 2025-03-30)"
   xmlns:inkscape="http://www.inkscape.org/namespaces/inkscape"
   xmlns:sodipodi="http://sodipodi.sourceforge.net/DTD/sodipodi-0.dtd"
   xmlns="http://www.w3.org/2000/svg"
   xmlns:svg="http://www.w3.org/2000/svg"><defs
     id="defs14" /><sodipodi:namedview
     id="namedview14"
     pagecolor="#ffffff"
     bordercolor="#000000"
     borderopacity="0.25"
     inkscape:showpageshadow="2"
     inkscape:pageopacity="0.0"
     inkscape:pagecheckerboard="0"
     inkscape:deskcolor="#d1d1d1"
     inkscape:document-units="mm"
     inkscape:zoom="2.390803"
     inkscape:cx="171.4905"
     inkscape:cy="0.20913476"
     inkscape:window-width="2560"
     inkscape:window-height="1395"
     inkscape:window-x="0"
     inkscape:window-y="0"
     inkscape:window-maximized="0"
     inkscape:current-layer="svg14" /><g
     transform="matrix(.86103 0 0 .85495 -48.587 1.9449)"
     stroke-width="1.3692"
     id="g14"><path
       d="m 57.1136,8.970256 c 0.957498,0.7021629 1.2509,0.98924 3.5965,1.0388 L 60.71,10.009 C 65.595364,8.7345681 71.618549,7.1416724 77.08,5.706 87.438,2.2766 92.788,0.1867 92.421,-0.3744 l -4.0224,-0.093544"
       id="path1"
       sodipodi:nodetypes="cccccc"
       style="fill:none;stroke:#0f4e8a;stroke-width:1.3692;stroke-linecap:round;stroke-linejoin:round" /><path
       d="M 72.754831,4.7553401 C 70.608324,4.5105057 69.570072,3.8337437 67.6243,3.0273 l -3.4529,-4.524 -1.6838,-0.093544 1.4032,5.9868 -4.5369,1.4499 c 0,0 1.0149,0.35016 1.5435,0.42095 0.33996,0.045527 0.68812,0.03817 1.029,0 1.5411,-0.17257 4.5369,-1.029 4.5369,-1.029"
       id="path2"
       style="fill:none;stroke:#0f4e8a;stroke-width:1.3692;stroke-linecap:round;stroke-linejoin:round"
       sodipodi:nodetypes="ccccccscc" /><path
       d="m 69.618,7.6678 c 2.3398,1.1331 5.2087,2.4949 7.1353,3.2768 3.4815,1.413 7.9069,0.26621 7.998,-0.88867 l 0.14032,-1.7773 -3.4611,-1.8709 -0.98222,-1.9177"
       id="path3"
       style="fill:none;stroke:#0f4e8a;stroke-width:1.3692;stroke-linejoin:round" /><path
       d="m 65.404,5.5265 c 0.01802,0.00922 0.03601,0.018431 0,0 z"
       id="path4"
       style="fill:none;stroke:#0f4e8a;stroke-width:1.3692;stroke-linejoin:round" /><path
       d="M 67.208,6.4073 65.404,5.52651"
       id="path5"
       style="fill:none;stroke:#0f4e8a;stroke-width:1.3692;stroke-linecap:round;stroke-linejoin:round" /><path
       d="M 69.801,3.9759 C 70.4349,3.7058 70.78322,3.67139 71.1258,3.07442 L 68.002,3.23681"
       id="path6"
       style="fill:none;stroke:#0f4e8a;stroke-width:1.3692;stroke-linejoin:round" /><path
       d="M 81.43,6.4078 C 80.44723,6.54288 79.1723,7.03625 77.8533,7.7391 L 72.6436,6.87244"
       id="path7"
       style="fill:none;stroke:#0f4e8a;stroke-width:0.58276103;stroke-linejoin:round;stroke-dasharray:none" /><ellipse
       transform="matrix(0.96853406,0.24888104,-0.24549919,0.9693968,0,0)"
       cx="83.60865"
       cy="-12.08604"
       rx="2.641989"
       ry="3.8453126"
       id="ellipse7"
       style="fill:none;stroke:#0f4e8a;stroke-width:0.58276281;stroke-linejoin:round;stroke-dasharray:none" /><path
       d="m84.891 8.2787c-0.96537 0.37876-2.3305 0.79915-2.3152 1.0758 0.309 0.45636 1.4629 0.18304 2.2097 0.26132"
       fill="#0f4e8a"
       id="path8" /><path
       d="m 92.853,30.461 v 3.7158 h 0.90734 v -3.616"
       fill="#ffffff"
       stroke-linecap="round"
       id="path9"
       style="stroke:#0f4e8a;stroke-width:1.3692;stroke-linejoin:round" /><path
       d="m 81.839,31.001 v 3.1761 h 0.90734 v -2.6463"
       fill="#ffffff"
       stroke-linecap="round"
       id="path10"
       style="stroke:#0f4e8a;stroke-width:1.3692;stroke-linejoin:round" /><path
       d="M 93.288,30.231 97.528989,32.735378 95.72202,29.362085 97.782,29.612 93.288,19.941 88.333,29.612 90.370336,29.342303 88.6018,32.7067 Z"
       fill="none"
       id="path11"
       style="stroke:#0f4e8a;stroke-width:1.3692;stroke-linejoin:round"
       sodipodi:nodetypes="ccccccccc" /><path
       d="m 83.327,20.897 a 3.0178,3.0175 0 0 0 -3.0178,3.0175 3.0178,3.0175 0 0 0 0.19211,1.0592 3.0178,3.0175 0 0 0 -0.81726,-0.1127 3.0178,3.0175 0 0 0 -3.0178,3.0175 3.0178,3.0175 0 0 0 3.0178,3.0175 3.0178,3.0175 0 0 0 1.6276,-0.47638 3.0178,3.0175 0 0 0 2.4797,1.2977 3.0178,3.0175 0 0 0 3.0178,-3.0175 3.0178,3.0175 0 0 0 -0.04379,-0.51265 3.0178,3.0175 0 0 0 1.2581,-2.4514 3.0178,3.0175 0 0 0 -1.8335,-2.7754 3.0178,3.0175 0 0 0 -2.8629,-2.0633 z"
       fill="none"
       stroke-linecap="round"
       id="path12"
       style="stroke:#0f4e8a;stroke-width:1.3692;stroke-linejoin:round" /><path
       d="m 75.357132,24.548836 3.378035,-10.642768 0.100171,6.723672"
       fill="none"
       stroke="#0f4e8a"
       stroke-linecap="round"
       stroke-linejoin="round"
       stroke-width="1.3692"
       id="path13"
       sodipodi:nodetypes="ccc" /><path
       d="M 81.533316,18.206982 78.736007,13.907068 90.9715,18.801"
       fill="none"
       stroke="#0f4e8a"
       stroke-linecap="round"
       stroke-linejoin="round"
       stroke-width="1.3692"
       id="path14"
       sodipodi:nodetypes="ccc" /></g></svg>
